<svg width="21" height="18" viewBox="0 0 21 18" fill="none"  xmlns="http://www.w3.org/2000/svg">
<path d="M20.6667 18H0.666656V16H1.66666V1C1.66666 0.734784 1.77201 0.48043 1.95955 0.292893C2.14709 0.105357 2.40144 0 2.66666 0H16.6667C16.9319 0 17.1862 0.105357 17.3738 0.292893C17.5613 0.48043 17.6667 0.734784 17.6667 1V6H19.6667V16H20.6667V18ZM15.6667 16H17.6667V8H11.6667V16H13.6667V10H15.6667V16ZM15.6667 6V2H3.66666V16H9.66666V6H15.6667ZM5.66666 8H7.66666V10H5.66666V8ZM5.66666 12H7.66666V14H5.66666V12ZM5.66666 4H7.66666V6H5.66666V4Z" fill="#7f7f7f"/>
</svg>
