<svg width="21" height="23" viewBox="0 0 21 23" fill="none" xmlns="http://www.w3.org/2000/svg">
<path d="M18.4653 15.4342L19.7636 15.8399V14.4797V12.74V12.1857L19.2936 11.892L12.8048 7.83648V3.60654C12.8048 2.33227 11.7743 1.30176 10.5 1.30176C9.22573 1.30176 8.19521 2.33227 8.19521 3.60654V7.83648L1.70639 11.892L1.23639 12.1857V12.74V14.4797V15.8399L2.53466 15.4342L8.19521 13.6653V16.5893L6.85551 17.594L6.45551 17.894V18.394V19.6988V21.0245L7.73023 20.6603L10.5 19.869L13.2698 20.6603L14.5445 21.0245V19.6988V18.394V17.894L14.1445 17.594L12.8048 16.5893V13.6653L18.4653 15.4342Z" fill="white" stroke="#7f7f7f" stroke-width="2"/>
</svg>
