<svg width="14" height="22" viewBox="0 0 14 22" fill="none" xmlns="http://www.w3.org/2000/svg">
<path d="M13 9L10 10.5L6 7.5L5 13L8.5 16L9 20.5M13 7.5V20.5M5 16L3 20.5M3.5 7.5C2 8.5 1 11 1 11L3 12M7 5.5C7.53043 5.5 8.03914 5.28929 8.41421 4.91421C8.78929 4.53914 9 4.03043 9 3.5C9 2.96957 8.78929 2.46086 8.41421 2.08579C8.03914 1.71071 7.53043 1.5 7 1.5C6.46957 1.5 5.96086 1.71071 5.58579 2.08579C5.21071 2.46086 5 2.96957 5 3.5C5 4.03043 5.21071 4.53914 5.58579 4.91421C5.96086 5.28929 6.46957 5.5 7 5.5Z" stroke="#7f7f7f" stroke-width="2" stroke-linecap="round" stroke-linejoin="round"/>
</svg>
