<svg width="24" height="17" viewBox="0 0 24 17" fill="none" xmlns="http://www.w3.org/2000/svg">
<path d="M22.6297 6.45932L18.3982 5.80739L15.8195 1.59473C15.6841 1.37423 15.4941 1.1924 15.2679 1.06683C15.0417 0.941267 14.7869 0.876212 14.5282 0.877964L3.72075 0.964074C3.40892 0.966707 3.10565 1.06641 2.85309 1.24932C2.60053 1.43223 2.41121 1.68928 2.31145 1.98473L1.08333 5.6265V13.9995H3.66173C3.86218 14.6511 4.26623 15.2212 4.81456 15.6262C5.3629 16.0313 6.02664 16.2498 6.70833 16.2498C7.39002 16.2498 8.05376 16.0313 8.60209 15.6262C9.15043 15.2212 9.55448 14.6511 9.75492 13.9995H14.5367C14.7372 14.6511 15.1412 15.2212 15.6896 15.6262C16.2379 16.0313 16.9016 16.2498 17.5833 16.2498C18.265 16.2498 18.9288 16.0313 19.4771 15.6262C20.0254 15.2212 20.4295 14.6511 20.6299 13.9995H23.5833V7.5712C23.5846 7.30219 23.4888 7.04175 23.3137 6.83755C23.1386 6.63336 22.8958 6.49909 22.6297 6.45932ZM10.8333 2.40735L14.5401 2.37782L16.6073 5.75503L10.8333 5.75301V2.40735ZM3.73275 2.46398L9.33333 2.41935V5.7525L2.62463 5.7501L3.73275 2.46398ZM6.70833 14.7495C6.37457 14.7495 6.04831 14.6506 5.7708 14.4651C5.4933 14.2797 5.277 14.0162 5.14928 13.7078C5.02156 13.3995 4.98814 13.0602 5.05325 12.7328C5.11837 12.4055 5.27908 12.1048 5.51509 11.8688C5.75109 11.6328 6.05177 11.4721 6.37911 11.407C6.70646 11.3419 7.04576 11.3753 7.35411 11.503C7.66246 11.6307 7.92601 11.847 8.11143 12.1245C8.29686 12.402 8.39583 12.7283 8.39583 13.062C8.39533 13.5094 8.21738 13.9384 7.90102 14.2547C7.58466 14.5711 7.15573 14.749 6.70833 14.7495ZM17.5833 14.7495C17.2496 14.7495 16.9233 14.6506 16.6458 14.4651C16.3683 14.2797 16.152 14.0162 16.0243 13.7078C15.8966 13.3995 15.8631 13.0602 15.9283 12.7328C15.9934 12.4055 16.1541 12.1048 16.3901 11.8688C16.6261 11.6328 16.9268 11.4721 17.2541 11.407C17.5815 11.3419 17.9208 11.3753 18.2291 11.503C18.5375 11.6307 18.801 11.847 18.9864 12.1245C19.1719 12.402 19.2708 12.7283 19.2708 13.062C19.2703 13.5094 19.0924 13.9384 18.776 14.2547C18.4597 14.5711 18.0307 14.749 17.5833 14.7495ZM22.0833 12.4995H20.7201C20.5883 11.7635 20.2019 11.0972 19.6285 10.6173C19.055 10.1374 18.3311 9.87447 17.5833 9.87448C16.8356 9.87447 16.1116 10.1374 15.5382 10.6173C14.9647 11.0972 14.5783 11.7635 14.4465 12.4995H9.84511C9.71333 11.7635 9.32691 11.0972 8.75347 10.6173C8.18002 10.1374 7.45608 9.87448 6.70833 9.87448C5.96057 9.87448 5.23663 10.1374 4.66319 10.6173C4.08975 11.0972 3.70332 11.7635 3.57155 12.4995H2.58333V7.25076L18.0767 7.27556L22.0833 7.89285V12.4995Z" fill="#7f7f7f" stroke="#7f7f7f" stroke-width="0.5"/>
</svg>
