<svg width="312" height="48" viewBox="0 0 312 48" fill="none" xmlns="http://www.w3.org/2000/svg">
<path d="M8.74733 33.75H7.49952C7.37414 33.75 7.25077 33.7185 7.14069 33.6585C7.03062 33.5984 6.93735 33.5118 6.86941 33.4064C6.80147 33.301 6.76104 33.1803 6.7518 33.0552C6.74257 32.9302 6.76483 32.8048 6.81655 32.6906L9.83811 26.0227L5.30108 25.9219L3.64639 27.9267C3.33092 28.3233 3.07921 28.5 2.43702 28.5H1.59702C1.46402 28.5043 1.33195 28.4764 1.212 28.4188C1.09205 28.3612 0.987757 28.2755 0.907956 28.1691C0.796393 28.0186 0.686706 27.7636 0.793581 27.3998L1.72264 24.0717C1.72967 24.0469 1.73811 24.022 1.74749 23.9977C1.74795 23.9953 1.74795 23.9929 1.74749 23.9906C1.73781 23.9663 1.72951 23.9414 1.72264 23.9161L0.792643 20.5669C0.691862 20.2102 0.802018 19.9608 0.912643 19.8141C0.986929 19.7155 1.08331 19.6357 1.19403 19.5812C1.30475 19.5266 1.42672 19.4988 1.55014 19.5H2.43702C2.91655 19.5 3.38202 19.7152 3.65577 20.0625L5.27624 22.0336L9.83811 21.9661L6.81749 15.3098C6.7657 15.1957 6.74335 15.0704 6.75249 14.9453C6.76163 14.8203 6.80196 14.6996 6.8698 14.5941C6.93764 14.4887 7.03082 14.402 7.14083 14.3419C7.25083 14.2817 7.37416 14.2502 7.49952 14.25H8.76092C8.9369 14.2535 9.10983 14.2967 9.26685 14.3762C9.42388 14.4557 9.56097 14.5696 9.66796 14.7094L15.5297 21.8344L18.2376 21.7631C18.4359 21.7523 18.9853 21.7486 19.1123 21.7486C21.7026 21.75 23.2495 22.5909 23.2495 24C23.2495 24.4434 23.0723 25.2656 21.8869 25.7887C21.187 26.0981 20.2533 26.2547 19.1114 26.2547C18.9858 26.2547 18.4378 26.2509 18.2367 26.2402L15.5292 26.168L9.65296 33.293C9.54588 33.4321 9.40891 33.5454 9.25216 33.6246C9.0954 33.7037 8.92288 33.7465 8.74733 33.75Z" fill="#112211"/>
<line x1="48.5" y1="2.18557e-08" x2="48.5" y2="48" stroke="#D7E2EE"/>
<path d="M87.5818 26.5589C86.595 25.6818 85.3207 25.1974 84.0005 25.1974C82.6803 25.1974 81.406 25.6818 80.4193 26.5589M90.4435 23.6972C88.6959 22.063 86.3927 21.154 84.0001 21.154C81.6075 21.154 79.3042 22.063 77.5566 23.6972" stroke="#112211" stroke-width="2" stroke-linecap="round" stroke-linejoin="round"/>
<path d="M92.9864 20.5363C90.513 18.3298 87.3142 17.1104 83.9996 17.1104C80.6849 17.1104 77.4862 18.3298 75.0127 20.5363" stroke="#112211" stroke-width="2" stroke-linecap="round" stroke-linejoin="round"/>
<path d="M84 31.5C83.7033 31.5 83.4133 31.412 83.1666 31.2472C82.92 31.0824 82.7277 30.8481 82.6142 30.574C82.5006 30.2999 82.4709 29.9983 82.5288 29.7074C82.5867 29.4164 82.7296 29.1491 82.9393 28.9393C83.1491 28.7296 83.4164 28.5867 83.7074 28.5288C83.9983 28.4709 84.2999 28.5006 84.574 28.6142C84.8481 28.7277 85.0824 28.92 85.2472 29.1666C85.412 29.4133 85.5 29.7033 85.5 30C85.5 30.3978 85.342 30.7794 85.0607 31.0607C84.7794 31.342 84.3978 31.5 84 31.5Z" fill="#112211"/>
<line x1="120.5" y1="2.18557e-08" x2="120.5" y2="48" stroke="#D7E2EE"/>
<path d="M156 25.5C156.414 25.5 156.75 25.1642 156.75 24.75C156.75 24.3358 156.414 24 156 24C155.586 24 155.25 24.3358 155.25 24.75C155.25 25.1642 155.586 25.5 156 25.5Z" fill="#112211"/>
<path d="M157.125 15.8203V15.375C157.125 15.0766 157.006 14.7905 156.795 14.5795C156.585 14.3685 156.298 14.25 156 14.25C155.702 14.25 155.415 14.3685 155.205 14.5795C154.994 14.7905 154.875 15.0766 154.875 15.375V15.8203C153.454 15.9987 152.097 16.5151 150.917 17.3264L150.422 16.8281C150.211 16.6168 149.924 16.498 149.625 16.498C149.326 16.498 149.039 16.6168 148.828 16.8281C148.617 17.0395 148.498 17.3261 148.498 17.625C148.498 17.9239 148.617 18.2105 148.828 18.4219L149.231 18.825C147.791 20.4627 146.998 22.5693 147 24.75C147 29.7127 151.037 33.75 156 33.75C160.963 33.75 165 29.7127 165 24.75C165 20.1684 161.558 16.3753 157.125 15.8203ZM156 27C155.469 26.9998 154.956 26.8121 154.55 26.4701C154.144 26.128 153.873 25.6535 153.783 25.1305C153.693 24.6075 153.791 24.0696 154.06 23.6118C154.328 23.1541 154.75 22.8059 155.25 22.6289V19.125C155.25 18.9261 155.329 18.7353 155.47 18.5947C155.61 18.454 155.801 18.375 156 18.375C156.199 18.375 156.39 18.454 156.53 18.5947C156.671 18.7353 156.75 18.9261 156.75 19.125V22.6289C157.25 22.8059 157.672 23.1541 157.94 23.6118C158.209 24.0696 158.307 24.6075 158.217 25.1305C158.127 25.6535 157.856 26.128 157.45 26.4701C157.044 26.8121 156.531 26.9998 156 27Z" fill="#112211"/>
<line x1="192.5" y1="2.18557e-08" x2="192.5" y2="48" stroke="#D7E2EE"/>
<g clip-path="url(#clip0_26_1958)">
<path d="M233.25 18H233.254H233.25ZM238.479 16.5H234.21L234.629 14.8284L236.425 14.2167C236.807 14.0869 237.034 13.6809 236.924 13.2928C236.896 13.1952 236.848 13.1043 236.784 13.0256C236.72 12.9469 236.64 12.882 236.55 12.835C236.46 12.788 236.362 12.7597 236.26 12.7519C236.159 12.7442 236.057 12.7571 235.961 12.7898L233.758 13.5398C233.639 13.5803 233.533 13.6499 233.448 13.7421C233.363 13.8344 233.303 13.9465 233.272 14.0681L232.664 16.5H226.521C226.117 16.5 225.771 16.8103 225.751 17.2139C225.746 17.3153 225.762 17.4167 225.797 17.5118C225.833 17.6069 225.887 17.6939 225.957 17.7674C226.027 17.8409 226.111 17.8994 226.205 17.9394C226.298 17.9794 226.398 18 226.5 18H226.629L226.676 18.4059C226.687 18.5007 226.732 18.5882 226.804 18.6516C226.875 18.7151 226.967 18.7501 227.062 18.75C228.891 18.75 230.515 19.2609 231.756 20.2275C232.445 20.7591 233.005 21.4413 233.391 22.222C233.607 22.6612 233.766 23.126 233.865 23.6053C233.885 23.6987 233.94 23.7808 234.019 23.8341C234.657 24.2667 235.127 24.9046 235.352 25.6416C235.577 26.3786 235.543 27.1705 235.256 27.8855C235.222 27.9682 235.22 28.0602 235.249 28.1447C235.415 28.6206 235.5 29.121 235.5 29.625C235.5 30.6722 235.144 31.6702 234.497 32.4352C234.13 32.8718 233.669 33.2191 233.148 33.4509C233.058 33.4907 232.987 33.5642 232.95 33.6558C232.756 34.1629 232.481 34.6355 232.136 35.0555C232.122 35.0725 232.113 35.0933 232.11 35.1154C232.107 35.1374 232.11 35.1599 232.119 35.1801C232.129 35.2003 232.144 35.2175 232.162 35.2295C232.181 35.2416 232.203 35.248 232.225 35.2481H234.532C235.097 35.2458 235.64 35.0322 236.055 34.6492C236.47 34.2663 236.727 33.7418 236.775 33.1791L238.378 18H238.5C238.602 18.0001 238.702 17.9796 238.796 17.9397C238.889 17.8997 238.973 17.8412 239.043 17.7677C239.114 17.6942 239.168 17.6072 239.204 17.512C239.239 17.4168 239.255 17.3154 239.25 17.2139C239.23 16.8103 238.882 16.5 238.479 16.5Z" fill="#112211"/>
<path d="M221.095 27C221.243 26.9993 221.389 27.0279 221.526 27.0843C221.663 27.1406 221.787 27.2235 221.892 27.3281L222.619 28.0552C222.636 28.0726 222.657 28.0864 222.68 28.0959C222.702 28.1053 222.727 28.1101 222.751 28.1101C222.776 28.1101 222.8 28.1053 222.823 28.0959C222.846 28.0864 222.867 28.0726 222.884 28.0552L223.61 27.3281C223.714 27.2235 223.838 27.1406 223.975 27.0843C224.112 27.0279 224.259 26.9993 224.407 27H233.621C233.67 27.0005 233.719 26.9913 233.765 26.9729C233.811 26.9545 233.852 26.9273 233.888 26.8928C233.923 26.8583 233.951 26.8173 233.97 26.772C233.989 26.7267 234 26.678 234 26.6287V26.625C233.999 26.1929 233.85 25.7742 233.577 25.4395C233.304 25.1048 232.923 24.8745 232.5 24.7875C232.462 23.3958 231.891 22.2309 230.835 21.4125C229.86 20.6513 228.555 20.25 227.063 20.25H223.688C220.49 20.25 218.324 22.0673 218.25 24.7875C217.827 24.8745 217.446 25.1048 217.173 25.4395C216.9 25.7742 216.751 26.1929 216.75 26.625C216.75 26.7245 216.79 26.8198 216.86 26.8902C216.93 26.9605 217.026 27 217.125 27H221.095ZM224.716 28.5C224.667 28.5 224.618 28.5096 224.572 28.5284C224.527 28.5473 224.485 28.5749 224.451 28.6097L223.413 29.648C223.237 29.8237 222.999 29.9225 222.75 29.9225C222.501 29.9225 222.263 29.8237 222.087 29.648L221.049 28.6097C221.015 28.5749 220.973 28.5473 220.928 28.5284C220.882 28.5096 220.833 28.5 220.784 28.5H217.531C217.355 28.4992 217.184 28.5608 217.049 28.6737C216.914 28.7867 216.823 28.9438 216.792 29.1173C216.764 29.2851 216.75 29.4549 216.75 29.625C216.75 31.0589 217.74 32.227 218.965 32.25C219.079 32.9587 219.355 33.5991 219.77 34.1002C220.383 34.8413 221.275 35.25 222.281 35.25H228.469C229.475 35.25 230.367 34.8413 230.98 34.0992C231.395 33.5981 231.671 32.9578 231.785 32.2491C233.01 32.227 234 31.0589 234 29.6241C234 29.454 233.986 29.2842 233.958 29.1164C233.927 28.9431 233.836 28.7861 233.701 28.6734C233.566 28.5606 233.395 28.4992 233.219 28.5H224.716Z" fill="#112211"/>
</g>
<line x1="264.5" y1="2.18557e-08" x2="264.5" y2="48" stroke="#D7E2EE"/>
<path d="M295.59 17.41C294.81 16.63 294.81 15.36 295.59 14.58C296.37 13.8 297.64 13.8 298.42 14.58C299.2 15.36 299.2 16.63 298.42 17.41C297.63 18.2 296.37 18.2 295.59 17.41ZM294 28V20C294 19.45 293.55 19 293 19C292.45 19 292 19.45 292 20V28C292 30.76 294.24 33 297 33H302C302.55 33 303 32.55 303 32C303 31.45 302.55 31 302 31H297C295.34 31 294 29.66 294 28ZM307.28 31.35L303.51 27.58C303.14 27.21 302.63 27 302.1 27H299.5V23.32C300.59 24.21 302.16 25.02 303.7 25.34C304.37 25.48 305 24.98 305 24.3C305 23.77 304.61 23.34 304.08 23.25C302.66 23.01 301.2 22.24 300.33 21.28L298.93 19.73C298.74 19.52 298.5 19.35 298.24 19.23C297.95 19.09 297.62 19 297.28 19H297.25C296.01 19 295 20.01 295 21.25V27C295 28.66 296.34 30 298 30H303.07L305.85 32.78C306.24 33.17 306.89 33.17 307.28 32.78C307.68 32.39 307.68 31.75 307.28 31.35Z" fill="#112211"/>
<defs>
<clipPath id="clip0_26_1958">
<rect width="24" height="24" fill="white" transform="translate(216 12)"/>
</clipPath>
</defs>
</svg>
