<svg width="142" height="24" viewBox="0 0 142 24" fill="none" xmlns="http://www.w3.org/2000/svg">
<line opacity="0.2" x1="0.939453" y1="13.5" x2="141.925" y2="13.5" stroke="black" stroke-miterlimit="16" stroke-dasharray="2 2"/>
<path d="M80.25 8.25L75 8.25V3C75 2.40326 74.7629 1.83097 74.341 1.40901C73.919 0.987053 73.3467 0.75 72.75 0.75L63.75 0.75C63.1533 0.75 62.581 0.987053 62.159 1.40901C61.7371 1.83097 61.5 2.40326 61.5 3L61.5 22.5C61.5 22.6989 61.579 22.8897 61.7197 23.0303C61.8603 23.171 62.0511 23.25 62.25 23.25H67.125C67.2245 23.25 67.3198 23.2105 67.3902 23.1402C67.4605 23.0698 67.5 22.9745 67.5 22.875V19.5211C67.5 19.1175 67.8103 18.7711 68.2139 18.7509C68.3153 18.7461 68.4167 18.7618 68.5118 18.7972C68.6069 18.8327 68.6939 18.8871 68.7674 18.9571C68.8409 19.0271 68.8994 19.1114 68.9394 19.2047C68.9794 19.298 69 19.3985 69 19.5V22.875C69 22.9745 69.0395 23.0698 69.1098 23.1402C69.1802 23.2105 69.2755 23.25 69.375 23.25L81.75 23.25C81.9489 23.25 82.1397 23.171 82.2803 23.0303C82.421 22.8897 82.5 22.6989 82.5 22.5V10.5C82.5 9.90326 82.2629 9.33097 81.841 8.90901C81.419 8.48705 80.8467 8.25 80.25 8.25ZM64.5975 20.2439C64.4422 20.2642 64.2844 20.2354 64.1463 20.1615C64.0082 20.0875 63.8967 19.9722 63.8274 19.8317C63.7582 19.6911 63.7347 19.5325 63.7603 19.3779C63.7858 19.2234 63.8591 19.0807 63.9699 18.9699C64.0807 18.8591 64.2234 18.7858 64.3779 18.7603C64.5325 18.7347 64.6911 18.7582 64.8317 18.8274C64.9722 18.8967 65.0875 19.0082 65.1615 19.1463C65.2354 19.2844 65.2642 19.4422 65.2439 19.5975C65.2225 19.7614 65.1475 19.9137 65.0306 20.0306C64.9137 20.1475 64.7614 20.2225 64.5975 20.2439ZM64.5975 16.4939C64.4422 16.5142 64.2844 16.4854 64.1463 16.4115C64.0082 16.3375 63.8967 16.2222 63.8274 16.0817C63.7582 15.9411 63.7347 15.7825 63.7603 15.6279C63.7858 15.4734 63.8591 15.3307 63.9699 15.2199C64.0807 15.1091 64.2234 15.0358 64.3779 15.0103C64.5325 14.9847 64.6911 15.0082 64.8317 15.0774C64.9722 15.1467 65.0875 15.2582 65.1615 15.3963C65.2354 15.5344 65.2642 15.6922 65.2439 15.8475C65.2225 16.0114 65.1475 16.1637 65.0306 16.2806C64.9137 16.3975 64.7614 16.4725 64.5975 16.4939ZM64.5975 12.7439C64.4422 12.7642 64.2844 12.7354 64.1463 12.6615C64.0082 12.5875 63.8967 12.4722 63.8274 12.3317C63.7582 12.1911 63.7347 12.0325 63.7603 11.8779C63.7858 11.7234 63.8591 11.5807 63.9699 11.4699C64.0807 11.3591 64.2234 11.2858 64.3779 11.2603C64.5325 11.2347 64.6911 11.2582 64.8317 11.3274C64.9722 11.3967 65.0875 11.5082 65.1615 11.6463C65.2354 11.7844 65.2642 11.9422 65.2439 12.0975C65.2225 12.2614 65.1475 12.4137 65.0306 12.5306C64.9137 12.6475 64.7614 12.7225 64.5975 12.7439ZM64.5975 8.99391C64.4422 9.01422 64.2844 8.98539 64.1463 8.91145C64.0082 8.83752 63.8967 8.7222 63.8274 8.58167C63.7582 8.44114 63.7347 8.28247 63.7603 8.12791C63.7858 7.97335 63.8591 7.83068 63.9699 7.71991C64.0807 7.60914 64.2234 7.53583 64.3779 7.51028C64.5325 7.48473 64.6911 7.50822 64.8317 7.57744C64.9722 7.64667 65.0875 7.75816 65.1615 7.89627C65.2354 8.03438 65.2642 8.19217 65.2439 8.3475C65.2225 8.51142 65.1475 8.66367 65.0306 8.78057C64.9137 8.89747 64.7614 8.97247 64.5975 8.99391ZM64.5975 5.24391C64.4422 5.26422 64.2844 5.23539 64.1463 5.16145C64.0082 5.08752 63.8967 4.9722 63.8274 4.83167C63.7582 4.69114 63.7347 4.53247 63.7603 4.37791C63.7858 4.22336 63.8591 4.08068 63.9699 3.96991C64.0807 3.85914 64.2234 3.78583 64.3779 3.76028C64.5325 3.73473 64.6911 3.75822 64.8317 3.82744C64.9722 3.89667 65.0875 4.00816 65.1615 4.14627C65.2354 4.28438 65.2642 4.44217 65.2439 4.5975C65.2225 4.76142 65.1475 4.91367 65.0306 5.03057C64.9137 5.14747 64.7614 5.22247 64.5975 5.24391ZM68.3475 16.4939C68.1922 16.5142 68.0344 16.4854 67.8963 16.4115C67.7582 16.3375 67.6467 16.2222 67.5774 16.0817C67.5082 15.9411 67.4847 15.7825 67.5103 15.6279C67.5358 15.4734 67.6091 15.3307 67.7199 15.2199C67.8307 15.1091 67.9734 15.0358 68.1279 15.0103C68.2825 14.9847 68.4411 15.0082 68.5817 15.0774C68.7222 15.1467 68.8375 15.2582 68.9115 15.3963C68.9854 15.5344 69.0142 15.6922 68.9939 15.8475C68.9725 16.0114 68.8975 16.1637 68.7806 16.2806C68.6637 16.3975 68.5114 16.4725 68.3475 16.4939ZM68.3475 12.7439C68.1922 12.7642 68.0344 12.7354 67.8963 12.6615C67.7582 12.5875 67.6467 12.4722 67.5774 12.3317C67.5082 12.1911 67.4847 12.0325 67.5103 11.8779C67.5358 11.7234 67.6091 11.5807 67.7199 11.4699C67.8307 11.3591 67.9734 11.2858 68.1279 11.2603C68.2825 11.2347 68.4411 11.2582 68.5817 11.3274C68.7222 11.3967 68.8375 11.5082 68.9115 11.6463C68.9854 11.7844 69.0142 11.9422 68.9939 12.0975C68.9725 12.2614 68.8975 12.4137 68.7806 12.5306C68.6637 12.6475 68.5114 12.7225 68.3475 12.7439ZM68.3475 8.99391C68.1922 9.01422 68.0344 8.98539 67.8963 8.91145C67.7582 8.83752 67.6467 8.7222 67.5774 8.58167C67.5082 8.44114 67.4847 8.28247 67.5103 8.12791C67.5358 7.97335 67.6091 7.83068 67.7199 7.71991C67.8307 7.60914 67.9734 7.53583 68.1279 7.51028C68.2825 7.48473 68.4411 7.50822 68.5817 7.57744C68.7222 7.64667 68.8375 7.75816 68.9115 7.89627C68.9854 8.03438 69.0142 8.19217 68.9939 8.3475C68.9725 8.51142 68.8975 8.66367 68.7806 8.78057C68.6637 8.89747 68.5114 8.97247 68.3475 8.99391ZM68.3475 5.24391C68.1922 5.26422 68.0344 5.23539 67.8963 5.16145C67.7582 5.08752 67.6467 4.9722 67.5774 4.83167C67.5082 4.69114 67.4847 4.53247 67.5103 4.37791C67.5358 4.22336 67.6091 4.08068 67.7199 3.96991C67.8307 3.85914 67.9734 3.78583 68.1279 3.76028C68.2825 3.73473 68.4411 3.75822 68.5817 3.82744C68.7222 3.89667 68.8375 4.00816 68.9115 4.14627C68.9854 4.28438 69.0142 4.44217 68.9939 4.5975C68.9725 4.76142 68.8975 4.91367 68.7806 5.03057C68.6637 5.14747 68.5114 5.22247 68.3475 5.24391ZM72.0975 20.2439C71.9422 20.2642 71.7844 20.2354 71.6463 20.1615C71.5082 20.0875 71.3967 19.9722 71.3274 19.8317C71.2582 19.6911 71.2347 19.5325 71.2603 19.3779C71.2858 19.2234 71.3591 19.0807 71.4699 18.9699C71.5807 18.8591 71.7234 18.7858 71.8779 18.7603C72.0325 18.7347 72.1911 18.7582 72.3317 18.8274C72.4722 18.8967 72.5875 19.0082 72.6615 19.1463C72.7354 19.2844 72.7642 19.4422 72.7439 19.5975C72.7225 19.7614 72.6475 19.9137 72.5306 20.0306C72.4137 20.1475 72.2614 20.2225 72.0975 20.2439ZM72.0975 16.4939C71.9422 16.5142 71.7844 16.4854 71.6463 16.4115C71.5082 16.3375 71.3967 16.2222 71.3274 16.0817C71.2582 15.9411 71.2347 15.7825 71.2603 15.6279C71.2858 15.4734 71.3591 15.3307 71.4699 15.2199C71.5807 15.1091 71.7234 15.0358 71.8779 15.0103C72.0325 14.9847 72.1911 15.0082 72.3317 15.0774C72.4722 15.1467 72.5875 15.2582 72.6615 15.3963C72.7354 15.5344 72.7642 15.6922 72.7439 15.8475C72.7225 16.0114 72.6475 16.1637 72.5306 16.2806C72.4137 16.3975 72.2614 16.4725 72.0975 16.4939ZM72.0975 12.7439C71.9422 12.7642 71.7844 12.7354 71.6463 12.6615C71.5082 12.5875 71.3967 12.4722 71.3274 12.3317C71.2582 12.1911 71.2347 12.0325 71.2603 11.8779C71.2858 11.7234 71.3591 11.5807 71.4699 11.4699C71.5807 11.3591 71.7234 11.2858 71.8779 11.2603C72.0325 11.2347 72.1911 11.2582 72.3317 11.3274C72.4722 11.3967 72.5875 11.5082 72.6615 11.6463C72.7354 11.7844 72.7642 11.9422 72.7439 12.0975C72.7225 12.2614 72.6475 12.4137 72.5306 12.5306C72.4137 12.6475 72.2614 12.7225 72.0975 12.7439ZM72.0975 8.99391C71.9422 9.01422 71.7844 8.98539 71.6463 8.91145C71.5082 8.83752 71.3967 8.7222 71.3274 8.58167C71.2582 8.44114 71.2347 8.28247 71.2603 8.12791C71.2858 7.97335 71.3591 7.83068 71.4699 7.71991C71.5807 7.60914 71.7234 7.53583 71.8779 7.51028C72.0325 7.48473 72.1911 7.50822 72.3317 7.57744C72.4722 7.64667 72.5875 7.75816 72.6615 7.89627C72.7354 8.03438 72.7642 8.19217 72.7439 8.3475C72.7225 8.51142 72.6475 8.66367 72.5306 8.78057C72.4137 8.89747 72.2614 8.97247 72.0975 8.99391ZM72.0975 5.24391C71.9422 5.26422 71.7844 5.23539 71.6463 5.16145C71.5082 5.08752 71.3967 4.9722 71.3274 4.83167C71.2582 4.69114 71.2347 4.53247 71.2603 4.37791C71.2858 4.22336 71.3591 4.08068 71.4699 3.96991C71.5807 3.85914 71.7234 3.78583 71.8779 3.76028C72.0325 3.73473 72.1911 3.75822 72.3317 3.82744C72.4722 3.89667 72.5875 4.00816 72.6615 4.14627C72.7354 4.28438 72.7642 4.44217 72.7439 4.5975C72.7225 4.76142 72.6475 4.91367 72.5306 5.03057C72.4137 5.14747 72.2614 5.22247 72.0975 5.24391ZM80.8125 21.75L75 21.75V9.75L80.25 9.75C80.4489 9.75 80.6397 9.82902 80.7803 9.96967C80.921 10.1103 81 10.3011 81 10.5V21.5625C81 21.6122 80.9802 21.6599 80.9451 21.6951C80.9099 21.7302 80.8622 21.75 80.8125 21.75Z" fill="#112211"/>
<path d="M78.75 18.75C78.6017 18.75 78.4567 18.794 78.3333 18.8764C78.21 18.9588 78.1139 19.0759 78.0571 19.213C78.0003 19.35 77.9855 19.5008 78.0144 19.6463C78.0434 19.7918 78.1148 19.9254 78.2197 20.0303C78.3246 20.1352 78.4582 20.2066 78.6037 20.2356C78.7492 20.2645 78.9 20.2497 79.037 20.1929C79.1741 20.1361 79.2912 20.04 79.3736 19.9167C79.456 19.7933 79.5 19.6483 79.5 19.5C79.5 19.3011 79.421 19.1103 79.2803 18.9697C79.1397 18.829 78.9489 18.75 78.75 18.75ZM78.75 15C78.6017 15 78.4567 15.044 78.3333 15.1264C78.21 15.2088 78.1139 15.3259 78.0571 15.463C78.0003 15.6 77.9855 15.7508 78.0144 15.8963C78.0434 16.0418 78.1148 16.1754 78.2197 16.2803C78.3246 16.3852 78.4582 16.4567 78.6037 16.4856C78.7492 16.5145 78.9 16.4997 79.037 16.4429C79.1741 16.3861 79.2912 16.29 79.3736 16.1667C79.456 16.0433 79.5 15.8983 79.5 15.75C79.5 15.5511 79.421 15.3603 79.2803 15.2197C79.1397 15.079 78.9489 15 78.75 15ZM78.75 11.25C78.6017 11.25 78.4567 11.294 78.3333 11.3764C78.21 11.4588 78.1139 11.5759 78.0571 11.713C78.0003 11.85 77.9855 12.0008 78.0144 12.1463C78.0434 12.2918 78.1148 12.4254 78.2197 12.5303C78.3246 12.6352 78.4582 12.7067 78.6037 12.7356C78.7492 12.7645 78.9 12.7497 79.037 12.6929C79.1741 12.6361 79.2912 12.54 79.3736 12.4167C79.456 12.2933 79.5 12.1483 79.5 12C79.5 11.8011 79.421 11.6103 79.2803 11.4697C79.1397 11.329 78.9489 11.25 78.75 11.25ZM75.75 18.75C75.6017 18.75 75.4567 18.794 75.3333 18.8764C75.21 18.9588 75.1139 19.0759 75.0571 19.213C75.0003 19.35 74.9855 19.5008 75.0144 19.6463C75.0434 19.7918 75.1148 19.9254 75.2197 20.0303C75.3246 20.1352 75.4582 20.2066 75.6037 20.2356C75.7492 20.2645 75.9 20.2497 76.037 20.1929C76.1741 20.1361 76.2912 20.04 76.3736 19.9167C76.456 19.7933 76.5 19.6483 76.5 19.5C76.5 19.3011 76.421 19.1103 76.2803 18.9697C76.1397 18.829 75.9489 18.75 75.75 18.75ZM75.75 15C75.6017 15 75.4567 15.044 75.3333 15.1264C75.21 15.2088 75.1139 15.3259 75.0571 15.463C75.0003 15.6 74.9855 15.7508 75.0144 15.8963C75.0434 16.0418 75.1148 16.1754 75.2197 16.2803C75.3246 16.3852 75.4582 16.4567 75.6037 16.4856C75.7492 16.5145 75.9 16.4997 76.037 16.4429C76.1741 16.3861 76.2912 16.29 76.3736 16.1667C76.456 16.0433 76.5 15.8983 76.5 15.75C76.5 15.5511 76.421 15.3603 76.2803 15.2197C76.1397 15.079 75.9489 15 75.75 15ZM75.75 11.25C75.6017 11.25 75.4567 11.294 75.3333 11.3764C75.21 11.4588 75.1139 11.5759 75.0571 11.713C75.0003 11.85 74.9855 12.0008 75.0144 12.1463C75.0434 12.2918 75.1148 12.4254 75.2197 12.5303C75.3246 12.6352 75.4582 12.7067 75.6037 12.7356C75.7492 12.7645 75.9 12.7497 76.037 12.6929C76.1741 12.6361 76.2912 12.54 76.3736 12.4167C76.456 12.2933 76.5 12.1483 76.5 12C76.5 11.8011 76.421 11.6103 76.2803 11.4697C76.1397 11.329 75.9489 11.25 75.75 11.25Z" fill="black"/>
</svg>
